<svg width="12" height="12" viewBox="0 0 12 12" fill="none" xmlns="http://www.w3.org/2000/svg">
<path d="M5.30687 0.482578C5.54497 -0.160859 6.45503 -0.160859 6.69313 0.482577L7.87819 3.68516C7.95305 3.88746 8.11254 4.04695 8.31484 4.12181L11.5174 5.30687C12.1609 5.54497 12.1609 6.45503 11.5174 6.69313L8.31484 7.87819C8.11254 7.95305 7.95305 8.11254 7.87819 8.31484L6.69313 11.5174C6.45503 12.1609 5.54497 12.1609 5.30687 11.5174L4.12181 8.31484C4.04695 8.11254 3.88746 7.95305 3.68516 7.87819L0.482578 6.69313C-0.160859 6.45503 -0.160859 5.54497 0.482577 5.30687L3.68516 4.12181C3.88746 4.04695 4.04695 3.88746 4.12181 3.68516L5.30687 0.482578Z" fill="#6B7280"/>
</svg>
