<svg width="18" height="18" viewBox="0 0 18 18" fill="none" xmlns="http://www.w3.org/2000/svg">
<g clip-path="url(#clip0_297_614)">
<path d="M9 0.222656C4.0275 0.222656 0 4.25241 0 9.22266C0 13.1999 2.5785 16.5727 6.15375 17.7614C6.60375 17.8462 6.76875 17.5679 6.76875 17.3287C6.76875 17.1149 6.76125 16.5487 6.7575 15.7987C4.254 16.3417 3.726 14.5912 3.726 14.5912C3.3165 13.5524 2.72475 13.2749 2.72475 13.2749C1.9095 12.7169 2.78775 12.7282 2.78775 12.7282C3.6915 12.7912 4.16625 13.6552 4.16625 13.6552C4.96875 15.0314 6.273 14.6339 6.7875 14.4037C6.8685 13.8217 7.10025 13.4249 7.3575 13.1999C5.35875 12.9749 3.258 12.2009 3.258 8.75241C3.258 7.76991 3.60675 6.96741 4.18425 6.33741C4.083 6.11016 3.77925 5.19516 4.263 3.95541C4.263 3.95541 5.01675 3.71391 6.738 4.87791C7.458 4.67766 8.223 4.57866 8.988 4.57416C9.753 4.57866 10.518 4.67766 11.238 4.87791C12.948 3.71391 13.7017 3.95541 13.7017 3.95541C14.1855 5.19516 13.8818 6.11016 13.7917 6.33741C14.3655 6.96741 14.7142 7.76991 14.7142 8.75241C14.7142 12.2099 12.6105 12.9712 10.608 13.1924C10.923 13.4624 11.2155 14.0144 11.2155 14.8574C11.2155 16.0619 11.2043 17.0294 11.2043 17.3219C11.2043 17.5582 11.3617 17.8394 11.823 17.7494C15.4237 16.5689 18 13.1939 18 9.22266C18 4.25241 13.9703 0.222656 9 0.222656Z" fill="white"/>
</g>
<defs>
<clipPath id="clip0_297_614">
<rect width="18" height="18" fill="white"/>
</clipPath>
</defs>
</svg>
