<svg width="22" height="22" viewBox="0 0 22 22" fill="none" xmlns="http://www.w3.org/2000/svg">
<g filter="url(#filter0_d_297_617)">
<path d="M17.8372 12.2843C17.8372 12.2843 16.9228 13.1725 16.6987 13.4329C16.3336 13.8181 15.9035 14 15.3397 14C15.2855 14 15.2277 14 15.1734 13.9964C14.1 13.9287 13.1024 13.5149 12.3542 13.1618C10.3085 12.1845 8.51219 10.7969 7.01946 9.03847C5.78697 7.57248 4.9629 6.21707 4.41713 4.76178C4.08099 3.87363 3.95811 3.18166 4.01232 2.52892C4.04846 2.11159 4.21111 1.76561 4.5111 1.46955L5.7436 0.253248C5.9207 0.089172 6.10864 0 6.29298 0C6.52068 0 6.70501 0.135541 6.82067 0.249682C6.82429 0.253248 6.8279 0.256816 6.83152 0.260382C7.05199 0.463695 7.26162 0.67414 7.4821 0.898854C7.59414 1.01299 7.7098 1.12713 7.82546 1.24484L8.81218 2.2186C9.1953 2.59669 9.1953 2.94624 8.81218 3.32433C8.70736 3.42777 8.60616 3.53121 8.50135 3.63108C8.19774 3.93783 8.43624 3.70247 8.12179 3.98068C8.11456 3.98782 8.10733 3.99138 8.10372 3.99852C7.79288 4.30527 7.85071 4.60489 7.91577 4.8082C7.91939 4.8189 7.923 4.8296 7.92662 4.8403C8.18323 5.4538 8.54467 6.03164 9.09405 6.72004L9.09767 6.72361C10.0952 7.93635 11.147 8.88157 12.3072 9.60565C12.4554 9.69839 12.6072 9.77329 12.7518 9.84463C12.8819 9.90883 13.0048 9.96947 13.1096 10.0337C13.1241 10.0408 13.1385 10.0515 13.153 10.0586C13.2759 10.1193 13.3915 10.1478 13.5108 10.1478C13.8108 10.1478 13.9987 9.96234 14.0602 9.9017L14.7686 9.20255C14.8915 9.08127 15.0867 8.93503 15.3144 8.93503C15.5385 8.93503 15.7228 9.07414 15.8349 9.19541C15.8385 9.19898 15.8385 9.19898 15.8421 9.20255L17.8336 11.1679C18.2059 11.5317 17.8372 12.2843 17.8372 12.2843Z" fill="white"/>
</g>
<defs>
<filter id="filter0_d_297_617" x="0" y="0" width="22" height="22" filterUnits="userSpaceOnUse" color-interpolation-filters="sRGB">
<feFlood flood-opacity="0" result="BackgroundImageFix"/>
<feColorMatrix in="SourceAlpha" type="matrix" values="0 0 0 0 0 0 0 0 0 0 0 0 0 0 0 0 0 0 127 0" result="hardAlpha"/>
<feOffset dy="4"/>
<feGaussianBlur stdDeviation="2"/>
<feComposite in2="hardAlpha" operator="out"/>
<feColorMatrix type="matrix" values="0 0 0 0 0 0 0 0 0 0 0 0 0 0 0 0 0 0 0.25 0"/>
<feBlend mode="normal" in2="BackgroundImageFix" result="effect1_dropShadow_297_617"/>
<feBlend mode="normal" in="SourceGraphic" in2="effect1_dropShadow_297_617" result="shape"/>
</filter>
</defs>
</svg>
