<svg width="18" height="18" viewBox="0 0 18 18" fill="none" xmlns="http://www.w3.org/2000/svg">
<path d="M8.75 16.75C13.1683 16.75 16.75 13.1683 16.75 8.75C16.75 4.33172 13.1683 0.75 8.75 0.75M8.75 16.75C4.33172 16.75 0.75 13.1683 0.75 8.75C0.75 4.33172 4.33172 0.75 8.75 0.75M8.75 16.75C6.817 16.75 5.25 13.1683 5.25 8.75C5.25 4.33172 6.817 0.75 8.75 0.75M8.75 16.75C10.683 16.75 12.25 13.1683 12.25 8.75C12.25 4.33172 10.683 0.75 8.75 0.75M2.25 12.6384C3.71562 11.7991 6.15065 11.25 8.90677 11.25C11.7833 11.25 14.31 11.8481 15.75 12.75M2.25 4.86163C3.71562 5.70089 6.15065 6.25 8.90677 6.25C11.7833 6.25 14.31 5.65187 15.75 4.75" stroke="white" stroke-width="1.5"/>
</svg>
